<?xml version="1.0" encoding="iso-8859-1"?>
<!-- Generator: Adobe Illustrator 18.0.0, SVG Export Plug-In . SVG Version: 6.00 Build 0)  -->
<!DOCTYPE svg PUBLIC "-//W3C//DTD SVG 1.1//EN" "http://www.w3.org/Graphics/SVG/1.1/DTD/svg11.dtd">
<svg version="1.1" id="Capa_1" xmlns="http://www.w3.org/2000/svg" xmlns:xlink="http://www.w3.org/1999/xlink" x="0px" y="0px"
	 viewBox="0 0 60 60" style="enable-background:new 0 0 60 60;" xml:space="preserve">
<g>
	<rect x="1" y="0.5" style="fill:#556080;" width="58" height="6"/>
	<rect x="3" y="6.5" style="fill:#ECF0F1;" width="54" height="42"/>
	<rect x="9" y="36.5" style="fill:#B49ACA;" width="6" height="5"/>
	<rect x="18" y="36.5" style="fill:#B49ACA;" width="6" height="5"/>
	<rect x="27" y="36.5" style="fill:#B49ACA;" width="6" height="5"/>
	<rect x="36" y="36.5" style="fill:#B49ACA;" width="6" height="5"/>
	<rect x="45" y="36.5" style="fill:#B49ACA;" width="6" height="5"/>
	<rect x="9" y="31.5" style="fill:#F3D55B;" width="6" height="5"/>
	<rect x="18" y="25.5" style="fill:#71C285;" width="6" height="11"/>
	<rect x="27" y="19.5" style="fill:#71C285;" width="6" height="17"/>
	<rect x="36" y="26.5" style="fill:#F3D55B;" width="6" height="10"/>
	<rect x="45" y="13.5" style="fill:#71C285;" width="6" height="23"/>
	<path style="fill:#D1D4D1;" d="M8,22.5c-0.256,0-0.512-0.098-0.707-0.293c-0.391-0.391-0.391-1.023,0-1.414l7-7
		c0.391-0.391,1.023-0.391,1.414,0s0.391,1.023,0,1.414l-7,7C8.512,22.402,8.256,22.5,8,22.5z"/>
	<path style="fill:#D1D4D1;" d="M15,20.5c-0.553,0-1-0.447-1-1v-5c0-0.553,0.447-1,1-1s1,0.447,1,1v5C16,20.053,15.553,20.5,15,20.5
		z"/>
	<path style="fill:#D1D4D1;" d="M15,15.5h-5c-0.553,0-1-0.447-1-1s0.447-1,1-1h5c0.553,0,1,0.447,1,1S15.553,15.5,15,15.5z"/>
	<path style="fill:#556080;" d="M59,49.5H1c-0.553,0-1-0.447-1-1s0.447-1,1-1h58c0.553,0,1,0.447,1,1S59.553,49.5,59,49.5z"/>
	<path style="fill:#556080;" d="M30,52.5c-0.553,0-1-0.447-1-1v-3c0-0.553,0.447-1,1-1s1,0.447,1,1v3C31,52.053,30.553,52.5,30,52.5
		z"/>
	<path style="fill:#556080;" d="M30,59.5c-2.206,0-4-1.794-4-4s1.794-4,4-4s4,1.794,4,4S32.206,59.5,30,59.5z M30,53.5
		c-1.103,0-2,0.897-2,2s0.897,2,2,2s2-0.897,2-2S31.103,53.5,30,53.5z"/>
</g>
<g>
</g>
<g>
</g>
<g>
</g>
<g>
</g>
<g>
</g>
<g>
</g>
<g>
</g>
<g>
</g>
<g>
</g>
<g>
</g>
<g>
</g>
<g>
</g>
<g>
</g>
<g>
</g>
<g>
</g>
</svg>
