<?xml version="1.0" encoding="iso-8859-1"?>
<!-- Generator: Adobe Illustrator 19.0.0, SVG Export Plug-In . SVG Version: 6.00 Build 0)  -->
<svg version="1.1" id="Layer_1" xmlns="http://www.w3.org/2000/svg" xmlns:xlink="http://www.w3.org/1999/xlink" x="0px" y="0px"
	 viewBox="0 0 512 512" style="enable-background:new 0 0 512 512;" xml:space="preserve">
<path style="fill:#9AD6D4;" d="M315.204,394.776l-50.901,80.311V340.441h-16.605v134.647l-50.9-80.311l-14.026,8.889l66.216,104.477
	c1.522,2.402,4.169,3.858,7.013,3.858c2.844,0,5.49-1.456,7.013-3.858l66.217-104.477L315.204,394.776z"/>
<path style="fill:#FFAA0E;" d="M191.676,212.2c-29.955-47.4-92.664-61.542-140.063-31.587
	c-47.4,29.954-61.542,92.663-31.587,140.062c28.981,45.859,105.122,65.462,157.853,67.839l0.493,30.603l34.278-21.724
	l-27.452-13.502C205.682,335.243,220.657,258.059,191.676,212.2z"/>
<path style="fill:#57BAB7;" d="M320.324,212.2c29.955-47.4,92.664-61.542,140.063-31.587c47.4,29.955,61.542,92.664,31.587,140.063
	c-28.981,45.859-105.122,65.462-157.853,67.839l-0.493,30.603l-34.278-21.724l27.452-13.502
	C306.318,335.243,291.343,258.059,320.324,212.2z"/>
<path style="fill:#FFFFFF;" d="M47.996,311.416c-2.75,0-5.44-1.365-7.021-3.859c-22.615-35.684-11.985-83.116,23.698-105.732
	c3.875-2.453,9.003-1.304,11.458,2.568c2.454,3.873,1.305,9.002-2.568,11.458C45.613,233.565,37.286,270.717,55,298.667
	c2.454,3.874,1.305,9.003-2.568,11.458C51.054,310.998,49.516,311.416,47.996,311.416z"/>
<path style="fill:#FF3776;" d="M389.764,133.764C389.764,59.888,329.876,0,256,0S122.236,59.888,122.236,133.764
	c0,71.377,70.811,146.691,127.827,186.496l-19.108,31.25h50.092l-19.108-31.25C318.954,280.455,389.764,205.141,389.764,133.764z"/>
<path style="fill:#FFFFFF;" d="M155.447,142.053C155.447,142.053,155.445,142.053,155.447,142.053c-4.586,0-8.303-3.719-8.303-8.304
	C147.153,73.734,195.986,24.908,256,24.908c4.585,0,8.303,3.717,8.303,8.303s-3.717,8.303-8.303,8.303
	c-50.86,0-92.243,41.377-92.251,92.237C163.748,138.336,160.031,142.053,155.447,142.053z"/>
<g>
</g>
<g>
</g>
<g>
</g>
<g>
</g>
<g>
</g>
<g>
</g>
<g>
</g>
<g>
</g>
<g>
</g>
<g>
</g>
<g>
</g>
<g>
</g>
<g>
</g>
<g>
</g>
<g>
</g>
</svg>
