<svg xmlns="http://www.w3.org/2000/svg" width="512" height="512"
  viewBox="0 0 512 512">
  <g>
    <path fill="#80d261"
      d="M486.245 0H25.755C11.531 0 0 11.531 0 25.755v144L342.245 512h144C500.469 512 512 500.469 512 486.245V25.755C512 11.531 500.469 0 486.245 0z">
    </path>
    <path fill="#68ca44"
      d="M486.245 0h-5.666a25.86 25.86 0 0 1 .515 5.151v408.632c0 42.865-34.749 77.613-77.613 77.613h-81.839L342.245 512h144C500.469 512 512 500.469 512 486.245V25.755C512 11.531 500.469 0 486.245 0z">
    </path>
    <path fill="#ffc344"
      d="M342.245 144H25.755C11.531 144 0 155.531 0 169.755v144L198.245 512h144C356.469 512 368 500.469 368 486.245v-316.49C368 155.531 356.469 144 342.245 144z">
    </path>
    <path fill="#feb237"
      d="M177.642 491.396 198.245 512h144c12.46 0 22.853-8.848 25.239-20.604z">
    </path>
    <path fill="#fd6930"
      d="M198.245 288H25.755C11.531 288 0 299.531 0 313.755v172.491C0 500.469 11.531 512 25.755 512h172.491C212.469 512 224 500.469 224 486.245v-172.49C224 299.531 212.469 288 198.245 288z">
    </path>
    <path fill="#fd5426"
      d="M.515 491.396C2.902 503.152 13.295 512 25.755 512h172.491c12.46 0 22.853-8.848 25.239-20.604z">
    </path>
    <path fill="#0055a3"
      d="M458.539 48H341.472c-4.866 0-7.302 5.883-3.862 9.323l41.563 41.563L98.886 379.173 57.323 337.61c-3.44-3.441-9.323-1.004-9.323 3.862v117.067A5.461 5.461 0 0 0 53.461 464h117.067c4.865 0 7.302-5.883 3.862-9.323l-41.563-41.563 280.288-280.288 41.563 41.563c3.44 3.441 9.323 1.004 9.323-3.862V53.461A5.463 5.463 0 0 0 458.539 48z">
    </path>
  </g>
</svg>