<svg xmlns="http://www.w3.org/2000/svg" xml:space="preserve" width="20" height="20" style="enable-background:new 0 0 512 512" viewBox="0 0 682.667 682.667"><defs><clipPath id="a" clipPathUnits="userSpaceOnUse"><path d="M0 512h512V0H0Z" data-original="#000000"/></clipPath></defs><g clip-path="url(#a)" transform="matrix(1.33333 0 0 -1.33333 0 682.667)"><path fill="#319df5" d="M0 0c0-73.87-31.3-140.44-81.35-187.16-5.89-5.5-12.03-10.72-18.42-15.65-23.7-18.29-50.7-32.51-79.95-41.63C-203.811-251.95-229.43-256-256-256s-52.189 4.05-76.28 11.56c-29.25 9.12-56.25 23.34-79.95 41.63a254.046 254.046 0 0 0-20.9 18C-481.74-138.22-512-72.64-512 0c0 71.22 29.09 135.65 76.03 182.06l.01.01a256.87 256.87 0 0 0 52.32 39.88C-346.07 243.61-302.48 256-256 256c46.48 0 90.07-12.39 127.64-34.05a257.232 257.232 0 0 0 49.7-37.32C-30.18 138.04 0 72.54 0 0" data-original="#319df5" style="fill-opacity:1;fill-rule:nonzero;stroke:none" transform="translate(512 256)"/><path fill="#b1e4f9" d="M0 0c0-50.57 108.13-38.53 131.62-175.92a257.231 257.231 0 0 0-18.42-15.65c-23.7-18.29-50.7-32.51-79.95-41.63h-152.561c-29.25 9.12-56.25 23.34-79.95 41.63a254.198 254.198 0 0 0-20.899 18C-195.841-38.67-88.95-50.28-88.95 0c0 52.6-117.04 37.45-134.05 193.3-1.33 12.21-2.05 25.47-2.05 39.89h361.14c0-13.42-.62-25.83-1.78-37.32C118.319 37.28 0 52.89 0 0" data-original="#b1e4f9" style="fill-opacity:1;fill-rule:nonzero;stroke:none" transform="translate(299.03 244.76)"/><path fill="#9dc6fb" d="M0 0c0-56.73-45.36-34.67-45.36-233.2h-14.651c-29.25 9.12-56.25 23.34-79.95 41.63a254.198 254.198 0 0 0-20.899 18C-136.541-38.67-29.65-50.28-29.65 0c0 52.6-117.04 37.45-134.04 193.31-1.331 12.21-2.05 25.46-2.05 39.88h120.38C-45.36 34.66 0 56.72 0 0" data-original="#9dc6fb" style="fill-opacity:1;fill-rule:nonzero;stroke:none" transform="translate(239.73 244.76)"/><path fill="#b76b32" d="M0 0a9923.93 9923.93 0 0 0-387.805 0c-11.21.219-21.184 7.451-24.607 18.129-4.88 15.226-4.88 30.452 0 45.678 3.423 10.678 13.397 17.91 24.607 18.129A9923.93 9923.93 0 0 0 0 81.936c11.21-.219 21.185-7.451 24.607-18.129 4.88-15.226 4.88-30.452 0-45.678C21.185 7.451 11.21.219 0 0" data-original="#b76b32" style="fill-opacity:1;fill-rule:nonzero;stroke:none" transform="translate(449.902 428.17)"/><path fill="#a8561e" d="M0 0c-27.3.3-54.61.72-81.91 1.26-11.21.22-21.19 7.45-24.611 18.13-4.879 15.22-4.879 30.45 0 45.68C-103.1 75.74-93.12 82.98-81.91 83.2c27.29.53 54.57.95 81.86 1.25-9.8-1.79-18.08-8.76-21.19-18.44-5.08-15.85-5.08-31.71 0-47.57C-18.13 8.74-9.82 1.77 0 0" data-original="#a8561e" style="fill-opacity:1;fill-rule:nonzero;stroke:none" transform="translate(144.01 426.907)"/><path fill="#f4dd45" d="M0 0h-245.572c-8.617 0-12.13 11.081-5.085 16.045l72.41 51.025 21.4 15.08a46.215 46.215 0 0 1 19.59 37.77v85.25c0 4.03-.37 7.96-1.11 11.78-2.4 12.47-8.71 23.76-18.84 33.69-9.21 9.02-20.44 15.96-32.319 23.3-18.421 11.38-39.301 24.28-55.211 47.31-5.369 7.77-9.97 16.35-13.8 25.78h271.5c-3.83-9.43-8.43-18.01-13.79-25.78-15.91-23.03-36.79-35.93-55.21-47.31-11.89-7.34-23.11-14.27-32.319-23.3-13.241-12.97-19.951-28.27-19.951-45.47v-85.26c0-15.02 7.31-29.11 19.59-37.76L5.086 16.045C12.13 11.081 8.617 0 0 0" data-original="#f4dd45" style="fill-opacity:1;fill-rule:nonzero;stroke:none" transform="translate(377.337 39.59)"/><path fill="#fbb031" d="m0 0 77.792 54.817c-2.18-18.38-3.75-40.4-4.39-67.07H3.884C-2.697-12.253-5.379-3.791 0 0" data-original="#fbb031" style="fill-opacity:1;fill-rule:nonzero;stroke:none" transform="translate(121.298 51.843)"/><path fill="#fbb031" d="M0 0c-2.399 12.47-8.71 23.76-18.84 33.69-9.21 9.02-20.44 15.96-32.319 23.3C-69.58 68.37-90.46 81.27-106.37 104.3c-5.369 7.77-9.97 16.35-13.8 25.78h79.86C-30.069 38.03-4.7 34.04 0 0" data-original="#fbb031" style="fill-opacity:1;fill-rule:nonzero;stroke:none" transform="translate(238.97 256.54)"/><path fill="#b76b32" d="M0 0c-43.23-33.35-97.41-53.19-156.23-53.19-58.821 0-113 19.84-156.231 53.19A9862.424 9862.424 0 0 0 0 0" data-original="#b76b32" style="fill-opacity:1;fill-rule:nonzero;stroke:none" transform="translate(412.23 53.19)"/><path fill="#fbb031" d="M0 0a9.228 9.228 0 1 0-18.456 0A9.228 9.228 0 0 0 0 0" data-original="#fbb031" style="fill-opacity:1;fill-rule:nonzero;stroke:none" transform="translate(337.522 358.248)"/><path fill="#fbb031" d="M0 0a9.228 9.228 0 1 0-18.456 0A9.228 9.228 0 0 0 0 0" data-original="#fbb031" style="fill-opacity:1;fill-rule:nonzero;stroke:none" transform="translate(307.738 364.154)"/><path fill="#fbb031" d="M0 0a9.229 9.229 0 1 0-18.458.002A9.229 9.229 0 0 0 0 0" data-original="#fbb031" style="fill-opacity:1;fill-rule:nonzero;stroke:none" transform="translate(319.305 339.303)"/><path fill="#fbb031" d="M0 0a9.229 9.229 0 1 0-18.458.002A9.229 9.229 0 0 0 0 0" data-original="#fbb031" style="fill-opacity:1;fill-rule:nonzero;stroke:none" transform="translate(257.464 78.165)"/><path fill="#fbb031" d="M0 0a9.229 9.229 0 1 0-18.458.002A9.229 9.229 0 0 0 0 0" data-original="#fbb031" style="fill-opacity:1;fill-rule:nonzero;stroke:none" transform="translate(237.76 98.644)"/><path fill="#fbb031" d="M0 0a9.228 9.228 0 1 0-18.456 0A9.228 9.228 0 0 0 0 0" data-original="#fbb031" style="fill-opacity:1;fill-rule:nonzero;stroke:none" transform="translate(230.259 71.922)"/><path fill="#e4f6ff" d="m0 0 23.84 5.222c7.379 1.616 7.379 12.139 0 13.756L0 24.199a7.04 7.04 0 0 0-5.371 5.372l-5.223 23.84c-1.616 7.379-12.138 7.379-13.755 0l-5.222-23.84a7.042 7.042 0 0 0-5.371-5.372l-23.84-5.221c-7.379-1.617-7.379-12.14 0-13.756L-34.942 0a7.041 7.041 0 0 0 5.371-5.371l5.222-23.84c1.617-7.379 12.139-7.379 13.755 0l5.223 23.84A7.04 7.04 0 0 0 0 0" data-original="#e4f6ff" style="fill-opacity:1;fill-rule:nonzero;stroke:none" transform="translate(418.5 366.308)"/></g></svg>