<svg version="1.1" xmlns="http://www.w3.org/2000/svg" viewBox="0 0 20 20">
  <path fill="#319DF5" d="M20,10c0,2.886-1.223,5.486-3.178,7.311c-0.23,0.215-0.47,0.419-0.72,0.611c-0.926,0.714-1.98,1.27-3.123,1.626
  C12.039,19.842,11.038,20,10,20s-2.039-0.158-2.98-0.452c-1.143-0.356-2.197-0.912-3.123-1.626
  c-0.285-0.219-0.557-0.454-0.816-0.703C1.182,15.399,0,12.838,0,10c0-2.782,1.136-5.299,2.97-7.112l0,0
  C3.582,2.283,4.269,1.76,5.014,1.33C6.482,0.484,8.184,0,10,0s3.518,0.484,4.986,1.33c0.704,0.406,1.356,0.895,1.941,1.458
  C18.821,4.608,20,7.166,20,10"/>
  <path fill="#B1E4F9" d="M11.681,10.439c0,1.975,4.224,1.505,5.141,6.872c-0.23,0.215-0.47,0.419-0.72,0.611
  c-0.926,0.714-1.98,1.27-3.123,1.626H7.02c-1.143-0.356-2.197-0.912-3.123-1.626c-0.285-0.219-0.557-0.454-0.816-0.703
  c0.95-5.27,5.125-4.816,5.125-6.78c0-2.055-4.572-1.463-5.236-7.551C2.918,2.411,2.89,1.893,2.89,1.33h14.107
  c0,0.524-0.024,1.009-0.07,1.458C16.303,8.983,11.681,8.373,11.681,10.439"/>
  <path fill="#9DC6FB"
    d="M9.364,10.439c0,2.216-1.772,1.354-1.772,9.109H7.02c-1.143-0.356-2.197-0.912-3.123-1.626
  c-0.285-0.219-0.557-0.454-0.816-0.703c0.95-5.27,5.125-4.816,5.125-6.78c0-2.055-4.572-1.463-5.236-7.551
  C2.918,2.411,2.89,1.893,2.89,1.33h4.702C7.593,9.085,9.364,8.223,9.364,10.439"/>
  <path fill="#B76B32"
    d="M17.574,3.275c-5.049,0.099-10.1,0.099-15.149,0C1.988,3.266,1.598,2.984,1.464,2.566
  c-0.191-0.595-0.191-1.19,0-1.784c0.134-0.417,0.523-0.7,0.961-0.708c5.049-0.099,10.1-0.099,15.149,0
  c0.438,0.009,0.828,0.291,0.961,0.708c0.191,0.595,0.191,1.19,0,1.784C18.402,2.984,18.012,3.266,17.574,3.275"/>
  <path fill="#A8561E"
    d="M5.625,3.324c-1.066-0.012-2.133-0.028-3.2-0.049C1.988,3.266,1.598,2.984,1.464,2.567
  c-0.191-0.595-0.191-1.189,0-1.784c0.134-0.417,0.523-0.7,0.961-0.708c1.066-0.021,2.132-0.037,3.198-0.049
  c-0.383,0.07-0.706,0.342-0.828,0.72c-0.198,0.619-0.198,1.239,0,1.858C4.917,2.983,5.242,3.255,5.625,3.324"/>
  <path fill="#F4DD45" d="M14.74,18.454H5.147c-0.337,0-0.474-0.433-0.199-0.627l2.829-1.993l0.836-0.589
  c0.48-0.338,0.765-0.888,0.765-1.475v-3.33c0-0.157-0.014-0.311-0.043-0.46c-0.094-0.487-0.34-0.928-0.736-1.316
  C8.239,8.311,7.8,8.039,7.336,7.753C6.617,7.308,5.801,6.804,5.18,5.905C4.97,5.601,4.79,5.266,4.641,4.898h10.605
  c-0.15,0.368-0.329,0.704-0.539,1.007c-0.621,0.9-1.437,1.404-2.157,1.848c-0.464,0.287-0.903,0.557-1.262,0.91
  c-0.517,0.507-0.779,1.104-0.779,1.776v3.33c0,0.587,0.286,1.137,0.765,1.475l3.664,2.582C15.214,18.021,15.076,18.454,14.74,18.454
  "/>
  <path fill="#FBB031"
    d="M4.738,17.975l3.039-2.141c-0.085,0.718-0.146,1.578-0.171,2.62H4.89C4.633,18.454,4.528,18.123,4.738,17.975"/>
  <path fill="#FBB031"
    d="M9.335,9.979c-0.094-0.487-0.34-0.928-0.736-1.316C8.239,8.311,7.8,8.039,7.336,7.753
  C6.617,7.308,5.801,6.804,5.18,5.905C4.97,5.601,4.79,5.266,4.641,4.898h3.12C8.16,8.493,9.151,8.649,9.335,9.979"/>
  <path fill="#B76B32" d="M16.103,17.922C14.414,19.225,12.298,20,10,20c-2.298,0-4.414-0.775-6.103-2.078
  C7.965,17.858,12.034,17.858,16.103,17.922"/>
  <path fill="#FBB031" d="M13.184,6.006c0,0.199-0.161,0.36-0.36,0.36s-0.36-0.161-0.36-0.36s0.161-0.36,0.36-0.36
  S13.184,5.807,13.184,6.006"/>
  <path fill="#FBB031" d="M12.021,5.775c0,0.199-0.161,0.36-0.36,0.36c-0.199,0-0.36-0.161-0.36-0.36c0-0.199,0.161-0.36,0.36-0.36
  C11.86,5.415,12.021,5.576,12.021,5.775"/>
  <path fill="#FBB031" d="M12.473,6.746c0,0.199-0.161,0.361-0.36,0.361s-0.361-0.161-0.361-0.36c0,0,0,0,0,0
  c0-0.199,0.162-0.36,0.361-0.36C12.311,6.386,12.473,6.547,12.473,6.746"/>
  <path fill="#FBB031" d="M10.057,16.947c0,0.199-0.161,0.361-0.36,0.361c-0.199,0-0.361-0.161-0.361-0.36c0,0,0,0,0,0
  c0-0.199,0.162-0.36,0.361-0.36C9.896,16.586,10.057,16.748,10.057,16.947"/>
  <path fill="#FBB031" d="M9.287,16.147c0,0.199-0.161,0.361-0.36,0.361s-0.361-0.161-0.361-0.36c0,0,0,0,0,0
  c0-0.199,0.162-0.36,0.361-0.36C9.126,15.786,9.287,15.948,9.287,16.147"/>
  <path fill="#FBB031" d="M8.994,17.191c0,0.199-0.161,0.36-0.36,0.36c-0.199,0-0.36-0.161-0.36-0.36s0.161-0.36,0.36-0.36
  C8.833,16.83,8.994,16.991,8.994,17.191"/>
  <path fill="#E4F6FF" d="M16.348,5.691l0.931-0.204c0.288-0.063,0.288-0.474,0-0.537l-0.931-0.204c-0.105-0.023-0.187-0.105-0.21-0.21
  l-0.204-0.931c-0.063-0.288-0.474-0.288-0.537,0l-0.204,0.931c-0.023,0.105-0.105,0.187-0.21,0.21L14.051,4.95
  c-0.288,0.063-0.288,0.474,0,0.537l0.931,0.204c0.105,0.023,0.187,0.105,0.21,0.21l0.204,0.931c0.063,0.288,0.474,0.288,0.537,0
  l0.204-0.931C16.161,5.796,16.243,5.714,16.348,5.691"/>
</svg>
