<svg xmlns="http://www.w3.org/2000/svg" version="1.1" xmlns:xlink="http://www.w3.org/1999/xlink" xmlns:svgjs="http://svgjs.com/svgjs" width="512" height="512" x="0" y="0" viewBox="0 0 24 24" style="enable-background:new 0 0 512 512" xml:space="preserve" class=""><g><path d="M23.006 0H11.451a5.208 5.208 0 0 0 5.211 5.211h2.126v2.057a5.208 5.208 0 0 0 5.211 5.211V.994A.994.994 0 0 0 23.006 0z" fill="#0085ff" data-original="#000000" opacity="1" class=""></path><path d="M17.28 5.76H5.726a5.208 5.208 0 0 0 5.211 5.211h2.126v2.057a5.21 5.21 0 0 0 5.212 5.211V6.754a.996.996 0 0 0-.995-.994z" fill="#0085ff" data-original="#000000" opacity="1" class=""></path><path d="M11.554 11.52H0a5.208 5.208 0 0 0 5.211 5.211h2.126v2.057a5.209 5.209 0 0 0 5.211 5.211V12.514a.994.994 0 0 0-.994-.994z" fill="#0085ff" data-original="#000000" opacity="1" class=""></path></g></svg>