<svg xmlns="http://www.w3.org/2000/svg" version="1.1"
  viewBox="0 0 496.156 496.156">
<path
  d="M0 248.08C0 111.06 111.069.002 248.074.002c137.013 0 248.082 111.059 248.082 248.078 0 137.005-111.069 248.074-248.082 248.074C111.069 496.154 0 385.085 0 248.08z"
  fill="#32bea6"></path>
<path
  d="M428.243 172.149c-10.348.023-20.694.054-31.042.077-23.272-52.177-68.95-89.871-126.649-98.91-64.287-10.071-125.816 19.788-162.504 72.312-16.296 23.326 22.003 45.165 38.16 22.034 50.317-72.037 157.757-65.527 201.907 4.686l-28.678.068c-2.674.008-4.574 1.197-5.749 2.877-1.92 2.058-2.65 5.072-.639 8.186 18.204 28.25 36.408 56.499 54.616 84.745 3.061 4.747 9.663 4.708 12.696-.046l54.188-85.013c2.989-4.685-.947-11.03-6.306-11.016zM350.353 327.224c-49.927 71.49-156.108 65.63-200.886-3.049l27.484-.068c2.666-.008 4.563-1.19 5.741-2.865 1.924-2.059 2.658-5.072.646-8.197-18.2-28.246-36.405-56.499-54.609-84.741-3.056-4.751-9.662-4.712-12.695.046l-54.196 85.009c-2.987 4.689.948 11.032 6.308 11.017l32.006-.08c23.498 51.319 68.777 88.332 125.865 97.275 64.287 10.072 125.816-19.784 162.496-72.312 16.293-23.331-22.005-45.169-38.16-22.035z"
  fill="#ffffff"></path>
</svg>