<svg xmlns="http://www.w3.org/2000/svg" version="1.1" viewBox="0 0 512 512">
<circle cx="256" cy="256" r="256" fill="#424242"></circle>
<path fill="#ffdc6e"
  d="M220.843 79.067 70.231 332.754c-17.371 29.26 3.716 66.302 37.744 66.302h296.051c34.048 0 55.133-37.084 37.72-66.343L290.768 79.029c-15.778-26.512-54.175-26.492-69.925.038z">
</path>
<path fill="#565656"
  d="M230.673 142.137h50.654v117.095h-50.654zM230.673 298.098h50.654v50.868h-50.654z">
</path>
<path fill="#ffb217"
  d="M404.03 399.06H256V59.16c13.47.06 26.91 6.68 34.77 19.87l150.97 253.68c17.42 29.26-3.67 66.35-37.71 66.35z">
</path>
<path d="M256 142.14h25.33v117.09H256zM256 298.1h25.33v50.87H256z"
  fill="#3a3a3a"></path>
</svg>