<svg xmlns="http://www.w3.org/2000/svg" version="1.1" viewBox="0 0 511.998 511">
<path fill="#67708d"
  d="M262.184 512.496C117.383 512.496 0 395.113 0 250.312 0 112.344 111.844.5 249.813.5c144.8 0 262.183 117.383 262.183 262.184 0 137.968-111.844 249.812-249.812 249.812zm0 0">
</path>
<g transform="scale(1.3 1.3)" transform-origin="center">
<path fill="#ebf0f9"
  d="m383.14 226.137-15.421-1.098a115.336 115.336 0 0 0-10.528-25.355l10.122-11.7c5.417-6.27 5.078-15.656-.778-21.515l-20.574-20.574c-5.863-5.864-15.262-6.196-21.527-.766l-11.696 10.137a115.2 115.2 0 0 0-25.36-10.508l-1.116-15.418c-.602-8.262-7.48-14.66-15.766-14.66h-29.094c-8.293 0-15.175 6.406-15.765 14.68l-1.098 15.417a115.47 115.47 0 0 0-25.273 10.48l-11.704-10.136c-6.265-5.426-15.66-5.09-21.523.774l-20.57 20.57c-5.86 5.86-6.2 15.254-.778 21.52l10.118 11.69a115.384 115.384 0 0 0-10.528 25.352l-15.43 1.106c-8.269.594-14.675 7.476-14.675 15.765v29.094c0 8.29 6.402 15.168 14.668 15.766l15.41 1.11a115.409 115.409 0 0 0 10.504 25.362l-10.137 11.704c-5.426 6.265-5.09 15.66.77 21.523l20.574 20.574c5.86 5.86 15.25 6.196 21.52.774l11.69-10.118a115.384 115.384 0 0 0 25.352 10.528l1.106 15.43c.594 8.27 7.472 14.675 15.765 14.675h29.094c8.29 0 15.168-6.402 15.766-14.668l1.11-15.41a115.278 115.278 0 0 0 25.444-10.55l11.704 10.12c6.265 5.418 15.652 5.079 21.511-.78l20.575-20.571c5.863-5.863 6.199-15.262.765-21.527l-10.137-11.696a115.278 115.278 0 0 0 10.508-25.36l15.418-1.116c8.262-.602 14.664-7.48 14.664-15.766v-29.094c0-8.293-6.41-15.175-14.68-15.765zM256 310.719c-29.945 0-54.219-24.278-54.219-54.219 0-29.945 24.274-54.219 54.219-54.219 29.941 0 54.219 24.274 54.219 54.219 0 29.941-24.278 54.219-54.219 54.219zm0 0">
</path>
<path fill="#c9d3e2"
  d="M256 175.113c-44.95 0-81.387 36.438-81.387 81.387 0 44.945 36.438 81.383 81.387 81.383 44.945 0 81.383-36.438 81.383-81.383 0-44.95-36.438-81.387-81.383-81.387zm0 135.606c-29.945 0-54.219-24.278-54.219-54.219 0-29.945 24.274-54.219 54.219-54.219 29.941 0 54.219 24.274 54.219 54.219 0 29.941-24.278 54.219-54.219 54.219zm0 0">
</path>
</g>
</svg>