<svg xmlns="http://www.w3.org/2000/svg" version="1.1" width="512" height="512"
  viewBox="0 0 512 512">
  <path fill="#00ddc0"
    d="M477.74 128v1.53c0 100.54-81.51 182.05-182.05 182.05h-79.38c-101.15 0-182.9-82.44-182.05-183.58C78.52 51.48 161.25 0 256 0s177.48 51.48 221.74 128z">
  </path>
  <path fill="#00ccb1"
    d="M512 256c0 130.3-97.36 237.88-223.31 253.93l-93.82-5.28C83 477.24 0 376.31 0 256c0-46.63 12.47-90.34 34.26-128 10 17.29 21.96 33.3 35.59 47.72C116.51 225.15 182.65 256 256 256s139.49-30.85 186.15-80.28A256.242 256.242 0 0 0 477.74 128C499.53 165.66 512 209.37 512 256z">
  </path>
  <path fill="#e7f2ff"
    d="M169.723 297.855v25.651c-28.859 0-55.989-11.232-76.4-31.632-20.422-20.417-31.67-47.563-31.67-76.438v-79.954h71.805v25.651H87.303v53.242c0 22.145 8.437 43.618 24.084 59.289 15.578 15.599 36.295 24.191 58.336 24.191z">
  </path>
  <path fill="#d0e8ff"
    d="M277.788 214.524c0 60.066-48.452 108.955-108.01 108.982h-.055v-25.651h.038c45.423-.022 82.376-37.406 82.376-83.332v-53.392h-46.154v-25.65h71.805z">
  </path>
  <path fill="#554e56"
    d="M422.254 322.791c-62.849 0-113.981 51.132-113.981 113.981v-7.289c0 34.246-27.861 62.112-62.112 62.112-34.246 0-62.113-27.866-62.112-62.112v-71.07h-14.326v.017l-.003-.02h-14.6v71.07c0 31.19 15.77 58.77 39.75 75.17 19.59 4.8 40.06 7.35 61.13 7.35 11.09 0 22.01-.71 32.73-2.07 28.81-15.3 48.47-45.62 48.47-80.45v7.29c0-46.89 38.15-85.05 85.05-85.05v-14.466h.004z">
  </path>
  <path fill="#e7f2ff"
    d="M395.582 337.257c0 24.15 19.577 43.728 43.728 43.727l18.135-42.382-18.135-45.073c-24.151 0-43.728 19.577-43.728 43.728z">
  </path>
  <path fill="#d0e8ff"
    d="M439.309 293.529v87.455c24.15 0 43.728-19.577 43.728-43.727 0-24.151-19.578-43.728-43.728-43.728z">
  </path>
  <path fill="#d0e8ff"
    d="m439.309 319.069 9.095 18.19-9.095 18.19c-10.047 0-18.19-8.148-18.19-18.19 0-10.047 8.143-18.19 18.19-18.19zM138.189 275.119l-11.783-6.325-26.333 49.041 11.777 6.325c9.387 5.037 19.407 8.792 29.907 11.215.006 13.153 0 26-.022 38.989l-.016 13.371 28.003.038 14.425-59.457-14.425-45.311c-10.849-.043-21.818-2.674-31.533-7.886z">
  </path>
  <path fill="#9dcfff"
    d="M227.693 323.943c-9.414 5.255-19.554 9.13-30.268 11.581.005 12.984 0 25.809-.022 38.918l-.016 13.371-27.664-.038v-104.77c10.866.038 21.606-2.516 30.835-7.668l11.674-6.516 27.135 48.605z">
  </path>
  <path fill="#554e56"
    d="M133.323 172.99c-10.474 0-18.965-8.491-18.965-18.965v-11.44c0-10.474 8.491-18.965 18.965-18.965s18.965 8.491 18.965 18.965v11.439c-.001 10.475-8.492 18.966-18.965 18.966z">
  </path>
  <path fill="#433f43"
    d="M205.984 172.99c-10.474 0-18.965-8.491-18.965-18.964v-11.44c0-10.474 8.491-18.965 18.965-18.965s18.965 8.491 18.965 18.965v11.44c0 10.473-8.491 18.964-18.965 18.964z">
  </path>
  <path fill="#9dcfff"
    d="M457.499 337.259c0 10.042-8.143 18.19-18.19 18.19v-36.38c10.048 0 18.19 8.143 18.19 18.19z">
  </path>
</svg>